PathFileType	3	(X/Y/Z)	F:\ViconData\AntennenMessung\Messung1\Session1\ID20.trc
DataRate	CameraRate	NumFrames	NumMarkers	Units	OrigDataRate	OrigDataStartFrame	OrigNumFrames
120.0	120.0	4	70	mm	120.0	260	1036	
Frame#	Time	Ashort			Along			Atop			A4			Bshort			Blong			Btop			B4			Cshort			Clong			Ctop			C4			Dshort			Dlong			Dtop			D4			Eshort			Elong			Etop			E4			Fshort			Flong			Ftop			F4			Gshort			Glong			Gtop			G4			Hshort			Hlong			Htop			H4			I1			I2			I3			I4			I5			WandAshort			WandAlong			WandAtop			WandA4			WandA15			WandBshort			WandB4			WandB5			WandBtop			WandBlong			WandCshort			WandClong			WandCtop			WandC4			WandC5			Acenter			Aantenna			Bcenter			Bantenna			Ccenter			Cantenna			Dcenter			Dantenna			Ecenter			Eantenna			Fcenter			Fantenna			Gcenter			Gantenna			Hcenter			Hantenna			Icenter			Iantenna			
		X1	Y1	Z1	X2	Y2	Z2	X3	Y3	Z3	X4	Y4	Z4	X5	Y5	Z5	X6	Y6	Z6	X7	Y7	Z7	X8	Y8	Z8	X9	Y9	Z9	X10	Y10	Z10	X11	Y11	Z11	X12	Y12	Z12	X13	Y13	Z13	X14	Y14	Z14	X15	Y15	Z15	X16	Y16	Z16	X17	Y17	Z17	X18	Y18	Z18	X19	Y19	Z19	X20	Y20	Z20	X21	Y21	Z21	X22	Y22	Z22	X23	Y23	Z23	X24	Y24	Z24	X25	Y25	Z25	X26	Y26	Z26	X27	Y27	Z27	X28	Y28	Z28	X29	Y29	Z29	X30	Y30	Z30	X31	Y31	Z31	X32	Y32	Z32	X33	Y33	Z33	X34	Y34	Z34	X35	Y35	Z35	X36	Y36	Z36	X37	Y37	Z37	X38	Y38	Z38	X39	Y39	Z39	X40	Y40	Z40	X41	Y41	Z41	X42	Y42	Z42	X43	Y43	Z43	X44	Y44	Z44	X45	Y45	Z45	X46	Y46	Z46	X47	Y47	Z47	X48	Y48	Z48	X49	Y49	Z49	X50	Y50	Z50	X51	Y51	Z51	X52	Y52	Z52	X53	Y53	Z53	X54	Y54	Z54	X55	Y55	Z55	X56	Y56	Z56	X57	Y57	Z57	X58	Y58	Z58	X59	Y59	Z59	X60	Y60	Z60	X61	Y61	Z61	X62	Y62	Z62	X63	Y63	Z63	X64	Y64	Z64	X65	Y65	Z65	X66	Y66	Z66	X67	Y67	Z67	X68	Y68	Z68	X69	Y69	Z69	X70	Y70	Z70	
260	2.1583333	-1038.2561	214.51877	-1644.2118	-1109.387	204.19136	-1599.3373	-1064.0038	172.5746	-1625.4167	-1054.229	262.31	-1635.0367	-1352.9333	234.68834	1003.6633	-1281.3695	227.0887	1052.511	-1322.7224	193.93912	1020.9212	-1284.7946	287.80164	1052.9333	813.89954	187.81953	1209.5492	892.4646	178.47763	1179.1511	844.33948	145.39679	1198.4812	860.91046	292.45407	1168.493	1115.6724	209.56285	-1401.62	1056.0875	193.96968	-1460.4014	1095.109	162.98531	-1424.1401	1069.8892	238.67662	-1425.8397	-1204.5748	1685.9672	-1563.0508	-1129.1562	1688.2781	-1606.0122	-1173.1881	1724.3016	-1581.9182	-1134.0865	1580.9457	-1603.8634	-1239.6538	1699.2144	1119.6006	-1309.2639	1698.6041	1071.9363	-1270.429	1736.3098	1096.9698	-1245.4783	1592.723	1110.7676	988.87152	1664.2063	1162.2722	955.87885	1702.3198	1181.1477	923.08679	1661.9191	1215.2239	939.79425	1659.4213	1159.9398	998.92841	1668.4827	-1579.5194	1058.6516	1669.9768	-1518.6602	1024.8992	1708.0526	-1551.1497	1059.1755	1672.1444	-1585.4874	-113.44255	159.92133	-224.02647	-29.204193	168.68816	-221.12465	-72.262558	127.0248	-224.67287	-75.830658	164.94185	-254.7794	-78.521614	163.22589	-175.40196																																														-1069.047	210.04825	-1624.7865	-1074.2479	248.69443	-1624.1366	-1321.5778	231.35855	1025.0658	-1320.3926	270.10361	1029.3573	848.06793	183.75668	1196.3287	851.83496	222.51335	1194.1542	1088.7491	202.51714	-1428.1801	1082.5858	240.82751	-1432.0953	-1171.8993	1686.9684	-1581.6639	-1170.5538	1647.9924	-1581.3984	-1270.9323	1698.9401	1098.1831	-1271.4569	1659.9641	1099.4487	953.7691	1704.757	1182.3546	973.03693	1731.6584	1161.7133	1026.3287	1669.1681	-1551.5978	1027.7616	1630.197	-1552.047	-76.156509	163.80174	-222.74203	-80.257309	202.5322	-220.70866
261	2.1666667	-1038.2555	214.55974	-1644.2057	-1109.4082	204.13565	-1599.3215	-1063.9791	172.54846	-1625.4363	-1054.2366	262.30414	-1635.0282	-1352.9066	234.73795	1003.6313	-1281.3198	227.0824	1052.4181	-1322.7054	193.91304	1020.9072	-1284.799	287.84543	1052.8563	813.92975	187.59628	1209.4968	892.78412	178.95598	1178.7216	844.76367	145.11826	1198.5601	860.88086	292.51114	1168.4282	1115.6748	209.53661	-1401.6208	1056.0453	193.90761	-1460.3593	1095.1254	163.01582	-1424.1749	1069.8345	238.52545	-1425.7809	-1204.5256	1685.9232	-1563.1875	-1129.1471	1688.3093	-1606.0536	-1173.1887	1724.3031	-1581.9077	-1134.0798	1580.9568	-1603.8567	-1239.642	1699.1598	1119.5852	-1309.2336	1698.5509	1071.916	-1270.4087	1736.2596	1096.948	-1245.4688	1592.7142	1110.7684	988.87146	1664.2139	1162.2665	955.96442	1702.2795	1181.1586	922.98566	1662.0376	1215.2316	939.80627	1659.4067	1159.9719	998.92883	1668.4835	-1579.5106	1058.7603	1670.144	-1518.6664	1024.9094	1708.0459	-1551.1433	1059.186	1672.1439	-1585.4941	-113.45125	159.90613	-224.0172	-29.217594	168.661	-221.11649	-72.250809	127.01585	-224.70926	-75.825523	164.94582	-254.77528	-78.49987	163.25851	-175.40906																																														-1069.0563	210.04732	-1624.776	-1074.2881	248.6888	-1624.0956	-1321.5081	231.38014	1025.0295	-1320.2698	270.12668	1029.2927	848.0755	183.85481	1196.1703	851.39142	222.63986	1193.7777	1088.7211	202.47195	-1428.1719	1082.5035	240.77711	-1432.0522	-1171.9086	1686.9556	-1581.7358	-1170.5729	1647.9789	-1581.5565	-1270.9146	1698.8861	1098.1638	-1271.4421	1659.9103	1099.4318	953.71918	1704.8767	1182.4474	973.02521	1731.7871	1161.8534	1026.4121	1669.2462	-1551.562	1027.9214	1630.2777	-1551.9827	-76.140404	163.78406	-222.73233	-80.23735	202.51233	-220.65004
262	2.175	-1038.1991	214.4106	-1644.2795	-1109.394	204.19371	-1599.3424	-1063.8167	173.06372	-1625.6814	-1054.2164	262.26694	-1634.9822	-1352.8983	234.7368	1003.6124	-1281.3344	227.04761	1052.4752	-1322.7892	193.91566	1020.9329	-1284.7722	287.83145	1052.8285	813.97839	187.71411	1209.5417	892.82928	178.97673	1178.7225	844.38159	145.45454	1198.4547	860.84912	292.45459	1168.6427	1115.7081	209.81682	-1401.796	1055.9741	193.87253	-1460.3961	1095.0685	162.73709	-1424.1189	1069.7915	238.58029	-1425.8512	-1204.528	1685.9146	-1563.1919	-1129.152	1688.2982	-1606.0212	-1173.2153	1724.3693	-1581.8951	-1134.0796	1580.9663	-1603.87	-1239.6621	1699.1862	1119.5856	-1309.3463	1698.8032	1072.0138	-1270.4458	1736.3254	1096.9756	-1245.5597	1592.9082	1110.8348	988.86731	1664.2035	1162.2665	955.9436	1702.2758	1181.1505	922.9942	1661.9937	1215.2124	939.79663	1659.3906	1159.9319	998.92871	1668.4623	-1579.5011	1058.635	1669.9681	-1518.6753	1024.9012	1708.0449	-1551.1528	1059.1726	1672.1342	-1585.5004	-113.48839	159.97118	-224.05663	-29.215244	168.68602	-221.12407	-72.263145	127.01699	-224.68091	-75.802383	164.94586	-254.82973	-78.494591	163.26094	-175.44533																																														-1068.7068	210.03255	-1625.0236	-1073.8201	248.68977	-1624.3358	-1321.5522	231.3688	1025.015	-1320.2725	270.11832	1029.2384	847.81335	183.96489	1196.3171	851.26978	222.75171	1194.1643	1088.6111	202.58406	-1428.3784	1082.4071	240.86928	-1432.4712	-1171.9293	1686.9453	-1581.7146	-1170.5901	1647.9688	-1581.5267	-1271.0485	1699.0135	1098.1587	-1271.678	1660.0383	1099.3947	953.72882	1704.8367	1182.4209	973.03314	1731.7466	1161.8246	1026.3268	1669.1532	-1551.5892	1027.7552	1630.1818	-1552.0266	-76.137375	163.83371	-222.75687	-80.213318	202.56728	-220.73268
263	2.1833333	-1038.2345	214.53766	-1644.2456	-1109.3723	204.15958	-1599.3428	-1063.9939	172.5705	-1625.4095	-1054.2159	262.27744	-1634.9988	-1352.9452	234.69827	1003.6057	-1281.3306	227.07497	1052.5095	-1322.6801	193.98775	1020.8719	-1284.7632	287.85464	1052.808	814.00287	187.49944	1209.5667	892.78705	178.95541	1178.7028	844.30328	145.54799	1198.3158	860.92255	292.51422	1168.4701	1115.6754	209.53883	-1401.6238	1056.0964	194.01537	-1460.4214	1095.1094	162.93356	-1424.1313	1069.7966	238.54309	-1425.8063	-1204.5161	1685.9078	-1563.1775	-1129.1458	1688.301	-1606.0492	-1173.2035	1724.3636	-1581.9076	-1134.0792	1580.967	-1603.8798	-1239.6681	1699.2377	1119.6067	-1309.3304	1698.7104	1071.9702	-1270.4104	1736.2832	1096.9558	-1245.4324	1592.6252	1110.7437	988.87756	1664.2167	1162.2639	955.90424	1702.3311	1181.1436	922.94379	1661.9585	1215.2109	939.77716	1659.3745	1159.9585	998.92371	1668.4747	-1579.5139	1058.6377	1669.9746	-1518.6886	1024.8849	1708.04	-1551.1626	1059.1656	1672.1414	-1585.4915	-113.46902	159.94775	-224.03777	-29.21059	168.67944	-221.09972	-72.260162	127.0295	-224.69788	-75.818062	164.95038	-254.74736	-78.515572	163.24275	-175.42961																																														-1069.0657	210.03976	-1624.7845	-1074.2963	248.68204	-1624.14	-1321.551	231.35638	1025.0439	-1320.3809	270.09811	1029.3694	847.6936	183.84572	1196.368	851.1283	222.64403	1194.395	1088.7772	202.5304	-1428.1692	1082.6497	240.84734	-1432.0765	-1171.9105	1686.9431	-1581.7238	-1170.5641	1647.9668	-1581.5323	-1270.9771	1699.0007	1098.197	-1271.5693	1660.0267	1099.4948	953.72723	1704.8472	1182.3899	973.04016	1731.7548	1161.7987	1026.3175	1669.1626	-1551.6102	1027.7534	1630.1917	-1552.0591	-76.140762	163.81607	-222.73613	-80.22641	202.54643	-220.67076
